<?xml version="1.0" encoding="utf-8"?>
<!-- Generator: Adobe Illustrator 16.0.0, SVG Export Plug-In . SVG Version: 6.00 Build 0)  -->
<!DOCTYPE svg PUBLIC "-//W3C//DTD SVG 1.1//EN" "http://www.w3.org/Graphics/SVG/1.1/DTD/svg11.dtd">
<svg version="1.1" id="Layer_1" xmlns="http://www.w3.org/2000/svg" xmlns:xlink="http://www.w3.org/1999/xlink" x="0px" y="0px"
	 width="16px" height="16px" viewBox="0 0 16 16" enable-background="new 0 0 16 16" xml:space="preserve">
<g id="Forma_1">
	<g>
		<path fill="#4F4F4F" d="M8.952,8l6.862-6.923c0.246-0.248,0.246-0.649,0-0.897c-0.246-0.247-0.646-0.247-0.892,0L7.995,7.17
			l-6.93-6.989c-0.246-0.248-0.645-0.248-0.891,0c-0.246,0.247-0.246,0.648,0,0.896L7.038,8l-6.856,6.916
			c-0.246,0.248-0.246,0.648,0,0.896c0.122,0.125,0.284,0.187,0.445,0.187s0.322-0.062,0.444-0.187l6.924-6.983l6.923,6.983
			c0.123,0.125,0.284,0.187,0.445,0.187c0.16,0,0.322-0.062,0.445-0.187c0.246-0.248,0.246-0.648,0-0.896L8.952,8z"/>
	</g>
</g>
</svg>
